<?xml version="1.0" encoding="UTF-8" standalone="no"?>
<!DOCTYPE svg PUBLIC "-//W3C//DTD SVG 1.1//EN" "http://www.w3.org/Graphics/SVG/1.1/DTD/svg11.dtd">
<svg version="1.1" xmlns="http://www.w3.org/2000/svg" xmlns:xlink="http://www.w3.org/1999/xlink" preserveAspectRatio="xMidYMid meet" viewBox="0 0 105 400" width="105" height="400"><defs><path d="M80 40L25 40L25 0L80 0L80 40Z" id="c3qDT4ZcHU"></path><path d="M80 20L80 0L85 10L90 20L85 30L80 40L80 20Z" id="a402EMYUOP"></path><path d="M25 20L25 40L20 30L15 20L20 10L25 0L25 20Z" id="be2F4SYAO"></path><path d="M20 175L0 175L0 45L20 45L20 175Z" id="b28zcDnZUh"></path><path d="M10 45L20 45L15 35L10 25L5 35L0 45L10 45Z" id="j7jTPbIbf"></path><path d="M10 175L0 175L5 185L10 195L15 185L20 175L10 175Z" id="a17sEJUp4a"></path><path d="M95 45L105 45L100 35L95 25L90 35L85 45L95 45Z" id="bciTrx25V"></path><path d="M105 175L85 175L85 45L105 45L105 175Z" id="bmLuAB4Gn"></path><path d="M95 175L85 175L90 185L95 195L100 185L105 175L95 175Z" id="a1oHqOqA2g"></path><path d="M95 225L105 225L100 215L95 205L90 215L85 225L95 225Z" id="fmF77txKJ"></path><path d="M105 355L85 355L85 225L105 225L105 355Z" id="a3QD1MHWCr"></path><path d="M95 355L85 355L90 365L95 375L100 365L105 355L95 355Z" id="a2o3FmC0iP"></path><path d="M80 380L80 360L85 370L90 380L85 390L80 400L80 380Z" id="a1jCQkgcws"></path><path d="M80 400L25 400L25 360L80 360L80 400Z" id="b2jJ2ndCRT"></path><path d="M25 380L25 400L20 390L15 380L20 370L25 360L25 380Z" id="dTmeNTVIJ"></path><path d="M10 225L20 225L15 215L10 205L5 215L0 225L10 225Z" id="a1UFZngoxz"></path><path d="M20 355L0 355L0 225L20 225L20 355Z" id="ejlN7OLp1"></path><path d="M10 355L0 355L5 365L10 375L15 365L20 355L10 355Z" id="aq6aGyo2V"></path></defs><g><g><g><use xlink:href="#c3qDT4ZcHU" opacity="1" fill="#000000" fill-opacity="1"></use><g><use xlink:href="#c3qDT4ZcHU" opacity="1" fill-opacity="0" stroke="#000000" stroke-width="1" stroke-opacity="0"></use></g></g><g><use xlink:href="#a402EMYUOP" opacity="1" fill="#000000" fill-opacity="1"></use><g><use xlink:href="#a402EMYUOP" opacity="1" fill-opacity="0" stroke="#000000" stroke-width="1" stroke-opacity="0"></use></g></g><g><use xlink:href="#be2F4SYAO" opacity="1" fill="#000000" fill-opacity="1"></use><g><use xlink:href="#be2F4SYAO" opacity="1" fill-opacity="0" stroke="#000000" stroke-width="1" stroke-opacity="0"></use></g></g><g><use xlink:href="#b28zcDnZUh" opacity="1" fill="#000000" fill-opacity="1"></use><g><use xlink:href="#b28zcDnZUh" opacity="1" fill-opacity="0" stroke="#000000" stroke-width="1" stroke-opacity="0"></use></g></g><g><use xlink:href="#j7jTPbIbf" opacity="1" fill="#000000" fill-opacity="1"></use><g><use xlink:href="#j7jTPbIbf" opacity="1" fill-opacity="0" stroke="#000000" stroke-width="1" stroke-opacity="0"></use></g></g><g><use xlink:href="#a17sEJUp4a" opacity="1" fill="#000000" fill-opacity="1"></use><g><use xlink:href="#a17sEJUp4a" opacity="1" fill-opacity="0" stroke="#000000" stroke-width="1" stroke-opacity="0"></use></g></g><g><use xlink:href="#bciTrx25V" opacity="1" fill="#000000" fill-opacity="1"></use><g><use xlink:href="#bciTrx25V" opacity="1" fill-opacity="0" stroke="#000000" stroke-width="1" stroke-opacity="0"></use></g></g><g><use xlink:href="#bmLuAB4Gn" opacity="1" fill="#000000" fill-opacity="1"></use><g><use xlink:href="#bmLuAB4Gn" opacity="1" fill-opacity="0" stroke="#000000" stroke-width="1" stroke-opacity="0"></use></g></g><g><use xlink:href="#a1oHqOqA2g" opacity="1" fill="#000000" fill-opacity="1"></use><g><use xlink:href="#a1oHqOqA2g" opacity="1" fill-opacity="0" stroke="#000000" stroke-width="1" stroke-opacity="0"></use></g></g><g><use xlink:href="#fmF77txKJ" opacity="1" fill="#000000" fill-opacity="1"></use><g><use xlink:href="#fmF77txKJ" opacity="1" fill-opacity="0" stroke="#000000" stroke-width="1" stroke-opacity="0"></use></g></g><g><use xlink:href="#a3QD1MHWCr" opacity="1" fill="#000000" fill-opacity="1"></use><g><use xlink:href="#a3QD1MHWCr" opacity="1" fill-opacity="0" stroke="#000000" stroke-width="1" stroke-opacity="0"></use></g></g><g><use xlink:href="#a2o3FmC0iP" opacity="1" fill="#000000" fill-opacity="1"></use><g><use xlink:href="#a2o3FmC0iP" opacity="1" fill-opacity="0" stroke="#000000" stroke-width="1" stroke-opacity="0"></use></g></g><g><use xlink:href="#a1jCQkgcws" opacity="1" fill="#000000" fill-opacity="1"></use><g><use xlink:href="#a1jCQkgcws" opacity="1" fill-opacity="0" stroke="#000000" stroke-width="1" stroke-opacity="0"></use></g></g><g><use xlink:href="#b2jJ2ndCRT" opacity="1" fill="#000000" fill-opacity="1"></use><g><use xlink:href="#b2jJ2ndCRT" opacity="1" fill-opacity="0" stroke="#000000" stroke-width="1" stroke-opacity="0"></use></g></g><g><use xlink:href="#dTmeNTVIJ" opacity="1" fill="#000000" fill-opacity="1"></use><g><use xlink:href="#dTmeNTVIJ" opacity="1" fill-opacity="0" stroke="#000000" stroke-width="1" stroke-opacity="0"></use></g></g><g><use xlink:href="#a1UFZngoxz" opacity="1" fill="#000000" fill-opacity="1"></use><g><use xlink:href="#a1UFZngoxz" opacity="1" fill-opacity="0" stroke="#000000" stroke-width="1" stroke-opacity="0"></use></g></g><g><use xlink:href="#ejlN7OLp1" opacity="1" fill="#000000" fill-opacity="1"></use><g><use xlink:href="#ejlN7OLp1" opacity="1" fill-opacity="0" stroke="#000000" stroke-width="1" stroke-opacity="0"></use></g></g><g><use xlink:href="#aq6aGyo2V" opacity="1" fill="#000000" fill-opacity="1"></use><g><use xlink:href="#aq6aGyo2V" opacity="1" fill-opacity="0" stroke="#000000" stroke-width="1" stroke-opacity="0"></use></g></g></g></g></svg>