<?xml version="1.0" encoding="UTF-8" standalone="no"?>
<!DOCTYPE svg PUBLIC "-//W3C//DTD SVG 1.1//EN" "http://www.w3.org/Graphics/SVG/1.1/DTD/svg11.dtd">
<svg version="1.1" xmlns="http://www.w3.org/2000/svg" xmlns:xlink="http://www.w3.org/1999/xlink" preserveAspectRatio="xMidYMid meet" viewBox="0 0 105 400" width="105" height="400"><defs><path d="M80 40L25 40L25 0L80 0L80 40Z" id="b1P5vMPC9v"></path><path d="M80 20L80 0L85 10L90 20L85 30L80 40L80 20Z" id="a3wFZ0COny"></path><path d="M25 20L25 40L20 30L15 20L20 10L25 0L25 20Z" id="a42cPTVvYq"></path><path d="M95 45L105 45L100 35L95 25L90 35L85 45L95 45Z" id="bciTrx25V"></path><path d="M105 175L85 175L85 45L105 45L105 175Z" id="bmLuAB4Gn"></path><path d="M95 175L85 175L90 185L95 195L100 185L105 175L95 175Z" id="a1oHqOqA2g"></path><path d="M25 200L25 220L20 210L15 200L20 190L25 180L25 200Z" id="eujdRhmQS"></path><path d="M80 220L25 220L25 180L80 180L80 220Z" id="abKhra2sY"></path><path d="M80 200L80 180L85 190L90 200L85 210L80 220L80 200Z" id="a124jpYsNk"></path><path d="M80 380L80 360L85 370L90 380L85 390L80 400L80 380Z" id="aNrcCkNPo"></path><path d="M80 400L25 400L25 360L80 360L80 400Z" id="fqTU3wex8"></path><path d="M25 380L25 400L20 390L15 380L20 370L25 360L25 380Z" id="b3YHsrW6Ti"></path><path d="M10 225L20 225L15 215L10 205L5 215L0 225L10 225Z" id="a3PQQiudSi"></path><path d="M20 355L0 355L0 225L20 225L20 355Z" id="b3L18zxVl8"></path><path d="M10 355L0 355L5 365L10 375L15 365L20 355L10 355Z" id="c6AL84RWG"></path></defs><g><g><g><use xlink:href="#b1P5vMPC9v" opacity="1" fill="#000000" fill-opacity="1"></use><g><use xlink:href="#b1P5vMPC9v" opacity="1" fill-opacity="0" stroke="#000000" stroke-width="1" stroke-opacity="0"></use></g></g><g><use xlink:href="#a3wFZ0COny" opacity="1" fill="#000000" fill-opacity="1"></use><g><use xlink:href="#a3wFZ0COny" opacity="1" fill-opacity="0" stroke="#000000" stroke-width="1" stroke-opacity="0"></use></g></g><g><use xlink:href="#a42cPTVvYq" opacity="1" fill="#000000" fill-opacity="1"></use><g><use xlink:href="#a42cPTVvYq" opacity="1" fill-opacity="0" stroke="#000000" stroke-width="1" stroke-opacity="0"></use></g></g><g><use xlink:href="#bciTrx25V" opacity="1" fill="#000000" fill-opacity="1"></use><g><use xlink:href="#bciTrx25V" opacity="1" fill-opacity="0" stroke="#000000" stroke-width="1" stroke-opacity="0"></use></g></g><g><use xlink:href="#bmLuAB4Gn" opacity="1" fill="#000000" fill-opacity="1"></use><g><use xlink:href="#bmLuAB4Gn" opacity="1" fill-opacity="0" stroke="#000000" stroke-width="1" stroke-opacity="0"></use></g></g><g><use xlink:href="#a1oHqOqA2g" opacity="1" fill="#000000" fill-opacity="1"></use><g><use xlink:href="#a1oHqOqA2g" opacity="1" fill-opacity="0" stroke="#000000" stroke-width="1" stroke-opacity="0"></use></g></g><g><use xlink:href="#eujdRhmQS" opacity="1" fill="#000000" fill-opacity="1"></use><g><use xlink:href="#eujdRhmQS" opacity="1" fill-opacity="0" stroke="#000000" stroke-width="1" stroke-opacity="0"></use></g></g><g><use xlink:href="#abKhra2sY" opacity="1" fill="#000000" fill-opacity="1"></use><g><use xlink:href="#abKhra2sY" opacity="1" fill-opacity="0" stroke="#000000" stroke-width="1" stroke-opacity="0"></use></g></g><g><use xlink:href="#a124jpYsNk" opacity="1" fill="#000000" fill-opacity="1"></use><g><use xlink:href="#a124jpYsNk" opacity="1" fill-opacity="0" stroke="#000000" stroke-width="1" stroke-opacity="0"></use></g></g><g><use xlink:href="#aNrcCkNPo" opacity="1" fill="#000000" fill-opacity="1"></use><g><use xlink:href="#aNrcCkNPo" opacity="1" fill-opacity="0" stroke="#000000" stroke-width="1" stroke-opacity="0"></use></g></g><g><use xlink:href="#fqTU3wex8" opacity="1" fill="#000000" fill-opacity="1"></use><g><use xlink:href="#fqTU3wex8" opacity="1" fill-opacity="0" stroke="#000000" stroke-width="1" stroke-opacity="0"></use></g></g><g><use xlink:href="#b3YHsrW6Ti" opacity="1" fill="#000000" fill-opacity="1"></use><g><use xlink:href="#b3YHsrW6Ti" opacity="1" fill-opacity="0" stroke="#000000" stroke-width="1" stroke-opacity="0"></use></g></g><g><use xlink:href="#a3PQQiudSi" opacity="1" fill="#000000" fill-opacity="1"></use><g><use xlink:href="#a3PQQiudSi" opacity="1" fill-opacity="0" stroke="#000000" stroke-width="1" stroke-opacity="0"></use></g></g><g><use xlink:href="#b3L18zxVl8" opacity="1" fill="#000000" fill-opacity="1"></use><g><use xlink:href="#b3L18zxVl8" opacity="1" fill-opacity="0" stroke="#000000" stroke-width="1" stroke-opacity="0"></use></g></g><g><use xlink:href="#c6AL84RWG" opacity="1" fill="#000000" fill-opacity="1"></use><g><use xlink:href="#c6AL84RWG" opacity="1" fill-opacity="0" stroke="#000000" stroke-width="1" stroke-opacity="0"></use></g></g></g></g></svg>