<?xml version="1.0" encoding="UTF-8" standalone="no"?>
<!DOCTYPE svg PUBLIC "-//W3C//DTD SVG 1.1//EN" "http://www.w3.org/Graphics/SVG/1.1/DTD/svg11.dtd">
<svg version="1.1" xmlns="http://www.w3.org/2000/svg" xmlns:xlink="http://www.w3.org/1999/xlink" preserveAspectRatio="xMidYMid meet" viewBox="0 0 105 400" width="105" height="400"><defs><path d="M80 40L25 40L25 0L80 0L80 40Z" id="b877rcfDe"></path><path d="M80 20L80 0L85 10L90 20L85 30L80 40L80 20Z" id="a87wmqNZF"></path><path d="M25 20L25 40L20 30L15 20L20 10L25 0L25 20Z" id="cAdF5rNqe"></path><path d="M20 175L0 175L0 45L20 45L20 175Z" id="a3KMm44Wg"></path><path d="M10 45L20 45L15 35L10 25L5 35L0 45L10 45Z" id="apbvIclVO"></path><path d="M10 175L0 175L5 185L10 195L15 185L20 175L10 175Z" id="cTKiWVwmR"></path><path d="M25 200L25 220L20 210L15 200L20 190L25 180L25 200Z" id="eujdRhmQS"></path><path d="M80 220L25 220L25 180L80 180L80 220Z" id="abKhra2sY"></path><path d="M80 200L80 180L85 190L90 200L85 210L80 220L80 200Z" id="a124jpYsNk"></path><path d="M95 225L105 225L100 215L95 205L90 215L85 225L95 225Z" id="a3jP0hVSsL"></path><path d="M105 355L85 355L85 225L105 225L105 355Z" id="a1A5Q6dRxr"></path><path d="M95 355L85 355L90 365L95 375L100 365L105 355L95 355Z" id="e3OMUGBSe"></path><path d="M80 380L80 360L85 370L90 380L85 390L80 400L80 380Z" id="b1MCzWEYIn"></path><path d="M80 400L25 400L25 360L80 360L80 400Z" id="a82efPyzAf"></path><path d="M25 380L25 400L20 390L15 380L20 370L25 360L25 380Z" id="he4xkMifK"></path></defs><g><g><g><use xlink:href="#b877rcfDe" opacity="1" fill="#000000" fill-opacity="1"></use><g><use xlink:href="#b877rcfDe" opacity="1" fill-opacity="0" stroke="#000000" stroke-width="1" stroke-opacity="0"></use></g></g><g><use xlink:href="#a87wmqNZF" opacity="1" fill="#000000" fill-opacity="1"></use><g><use xlink:href="#a87wmqNZF" opacity="1" fill-opacity="0" stroke="#000000" stroke-width="1" stroke-opacity="0"></use></g></g><g><use xlink:href="#cAdF5rNqe" opacity="1" fill="#000000" fill-opacity="1"></use><g><use xlink:href="#cAdF5rNqe" opacity="1" fill-opacity="0" stroke="#000000" stroke-width="1" stroke-opacity="0"></use></g></g><g><use xlink:href="#a3KMm44Wg" opacity="1" fill="#000000" fill-opacity="1"></use><g><use xlink:href="#a3KMm44Wg" opacity="1" fill-opacity="0" stroke="#000000" stroke-width="1" stroke-opacity="0"></use></g></g><g><use xlink:href="#apbvIclVO" opacity="1" fill="#000000" fill-opacity="1"></use><g><use xlink:href="#apbvIclVO" opacity="1" fill-opacity="0" stroke="#000000" stroke-width="1" stroke-opacity="0"></use></g></g><g><use xlink:href="#cTKiWVwmR" opacity="1" fill="#000000" fill-opacity="1"></use><g><use xlink:href="#cTKiWVwmR" opacity="1" fill-opacity="0" stroke="#000000" stroke-width="1" stroke-opacity="0"></use></g></g><g><use xlink:href="#eujdRhmQS" opacity="1" fill="#000000" fill-opacity="1"></use><g><use xlink:href="#eujdRhmQS" opacity="1" fill-opacity="0" stroke="#000000" stroke-width="1" stroke-opacity="0"></use></g></g><g><use xlink:href="#abKhra2sY" opacity="1" fill="#000000" fill-opacity="1"></use><g><use xlink:href="#abKhra2sY" opacity="1" fill-opacity="0" stroke="#000000" stroke-width="1" stroke-opacity="0"></use></g></g><g><use xlink:href="#a124jpYsNk" opacity="1" fill="#000000" fill-opacity="1"></use><g><use xlink:href="#a124jpYsNk" opacity="1" fill-opacity="0" stroke="#000000" stroke-width="1" stroke-opacity="0"></use></g></g><g><use xlink:href="#a3jP0hVSsL" opacity="1" fill="#000000" fill-opacity="1"></use><g><use xlink:href="#a3jP0hVSsL" opacity="1" fill-opacity="0" stroke="#000000" stroke-width="1" stroke-opacity="0"></use></g></g><g><use xlink:href="#a1A5Q6dRxr" opacity="1" fill="#000000" fill-opacity="1"></use><g><use xlink:href="#a1A5Q6dRxr" opacity="1" fill-opacity="0" stroke="#000000" stroke-width="1" stroke-opacity="0"></use></g></g><g><use xlink:href="#e3OMUGBSe" opacity="1" fill="#000000" fill-opacity="1"></use><g><use xlink:href="#e3OMUGBSe" opacity="1" fill-opacity="0" stroke="#000000" stroke-width="1" stroke-opacity="0"></use></g></g><g><use xlink:href="#b1MCzWEYIn" opacity="1" fill="#000000" fill-opacity="1"></use><g><use xlink:href="#b1MCzWEYIn" opacity="1" fill-opacity="0" stroke="#000000" stroke-width="1" stroke-opacity="0"></use></g></g><g><use xlink:href="#a82efPyzAf" opacity="1" fill="#000000" fill-opacity="1"></use><g><use xlink:href="#a82efPyzAf" opacity="1" fill-opacity="0" stroke="#000000" stroke-width="1" stroke-opacity="0"></use></g></g><g><use xlink:href="#he4xkMifK" opacity="1" fill="#000000" fill-opacity="1"></use><g><use xlink:href="#he4xkMifK" opacity="1" fill-opacity="0" stroke="#000000" stroke-width="1" stroke-opacity="0"></use></g></g></g></g></svg>